<svg width="24" height="24" viewBox="0 0 24 24" fill="none" xmlns="http://www.w3.org/2000/svg">
<g id="Instagram">
<path id="Vector" fill-rule="evenodd" clip-rule="evenodd" d="M16.4462 0.998047H7.55404C3.9402 0.998047 1.00012 3.93812 1.00012 7.55197V16.4441C1.00012 20.058 3.9402 22.998 7.55404 22.998H16.4462C20.06 22.998 23.0001 20.058 23.0001 16.4441V7.55197C23.0001 3.93812 20.06 0.998047 16.4462 0.998047ZM20.7869 16.4441C20.7869 18.8414 18.8435 20.7848 16.4462 20.7848H7.55404C5.15675 20.7848 3.21332 18.8414 3.21332 16.4441V7.55197C3.21332 5.15463 5.15675 3.21125 7.55404 3.21125H16.4462C18.8435 3.21125 20.7869 5.15463 20.7869 7.55197V16.4441ZM12.002 6.30806C8.86453 6.30806 6.31201 8.86058 6.31201 11.998C6.31201 15.1354 8.86453 17.688 12.002 17.688C15.1395 17.688 17.692 15.1355 17.692 11.998C17.692 8.86054 15.1395 6.30806 12.002 6.30806ZM12.002 15.4748C10.0818 15.4748 8.52521 13.9182 8.52521 11.998C8.52521 10.0779 10.0818 8.52126 12.002 8.52126C13.9222 8.52126 15.4788 10.0779 15.4788 11.998C15.4788 13.9182 13.9221 15.4748 12.002 15.4748ZM19.0668 6.35085C19.0668 7.10385 18.4564 7.71429 17.7034 7.71429C16.9504 7.71429 16.34 7.10385 16.34 6.35085C16.34 5.59784 16.9504 4.98741 17.7034 4.98741C18.4564 4.98741 19.0668 5.59784 19.0668 6.35085Z" fill="#8E969D"/>
</g>
</svg>
