<svg width="36" height="36" viewBox="0 0 36 36" fill="none" xmlns="http://www.w3.org/2000/svg">
<path d="M7.66663 24.1793C7.38329 24.1793 7.14585 24.0834 6.95429 23.8917C6.76252 23.7001 6.66663 23.4626 6.66663 23.179C6.66663 22.8957 6.76252 22.6582 6.95429 22.4667C7.14585 22.2753 7.38329 22.1797 7.66663 22.1797H28.3333C28.6166 22.1797 28.8541 22.2754 29.0456 22.467C29.2374 22.6588 29.3333 22.8964 29.3333 23.18C29.3333 23.4633 29.2374 23.7008 29.0456 23.8923C28.8541 24.0837 28.6166 24.1793 28.3333 24.1793H7.66663ZM7.66663 13.8203C7.38329 13.8203 7.14585 13.7246 6.95429 13.533C6.76252 13.3412 6.66663 13.1036 6.66663 12.82C6.66663 12.5367 6.76252 12.2992 6.95429 12.1077C7.14585 11.9163 7.38329 11.8207 7.66663 11.8207H28.3333C28.6166 11.8207 28.8541 11.9166 29.0456 12.1083C29.2374 12.2999 29.3333 12.5374 29.3333 12.821C29.3333 13.1043 29.2374 13.3418 29.0456 13.5333C28.8541 13.7247 28.6166 13.8203 28.3333 13.8203H7.66663Z" fill="#AFB6C0"/>
</svg>
