<svg width="36" height="36" viewBox="0 0 36 36" fill="none" xmlns="http://www.w3.org/2000/svg">
<path d="M18 19.405L11.236 26.1693C11.0513 26.3538 10.8192 26.4482 10.5397 26.4527C10.2603 26.4569 10.024 26.3624 9.83068 26.1693C9.63757 25.976 9.54102 25.7418 9.54102 25.4667C9.54102 25.1916 9.63757 24.9573 9.83068 24.764L16.595 18L9.83068 11.236C9.64624 11.0513 9.55179 10.8192 9.54735 10.5397C9.54313 10.2603 9.63757 10.024 9.83068 9.83067C10.024 9.63756 10.2582 9.541 10.5333 9.541C10.8085 9.541 11.0427 9.63756 11.236 9.83067L18 16.595L24.764 9.83067C24.9487 9.64622 25.1808 9.55178 25.4603 9.54733C25.7397 9.54311 25.976 9.63756 26.1693 9.83067C26.3625 10.024 26.459 10.2582 26.459 10.5333C26.459 10.8084 26.3625 11.0427 26.1693 11.236L19.405 18L26.1693 24.764C26.3538 24.9487 26.4482 25.1808 26.4527 25.4603C26.4569 25.7397 26.3625 25.976 26.1693 26.1693C25.976 26.3624 25.7418 26.459 25.4667 26.459C25.1916 26.459 24.9573 26.3624 24.764 26.1693L18 19.405Z" fill="#AFB6C0"/>
</svg>
