<svg width="24" height="24" viewBox="0 0 24 24" fill="none" xmlns="http://www.w3.org/2000/svg">
<g id="Tiktok">
<path id="Vector" fill-rule="evenodd" clip-rule="evenodd" d="M12 0.998047C5.9225 0.998047 1 5.92055 1 11.998C1 18.0755 5.9225 22.998 12 22.998C18.0775 22.998 23 18.0755 23 11.998C23 5.92055 18.0775 0.998047 12 0.998047ZM14.5575 9.02805V9.38555V14.143C14.5575 15.2797 14.1083 16.3522 13.3108 17.1589C12.5042 17.9655 11.4317 18.4055 10.295 18.4055C9.15833 18.4055 8.08583 17.9564 7.27917 17.1589C6.4725 16.3522 6.0325 15.2797 6.0325 14.143C6.0325 13.0064 6.48167 11.9339 7.27917 11.1272C8.08583 10.3205 9.15833 9.88055 10.295 9.88055H11.0833V12.1264H10.295C9.75417 12.1264 9.25 12.3372 8.865 12.7222C8.48 13.1072 8.26917 13.6114 8.26917 14.1522C8.26917 14.693 8.48 15.1972 8.865 15.5822C9.25 15.9672 9.75417 16.178 10.295 16.178C10.8358 16.178 11.34 15.9672 11.725 15.5822C12.11 15.1972 12.3208 14.693 12.3208 14.1522V5.59055H14.5575L14.6675 5.80138C15.0158 6.44305 15.4833 7.05721 16.0608 7.50638C16.51 7.85471 17.0233 8.10221 17.5825 8.20305L17.9767 8.27638L17.5458 10.4397L17.1608 10.3755C16.7025 10.293 16.2625 10.1555 15.8408 9.96305C15.3642 9.73388 14.915 9.43138 14.5483 9.04638L14.5575 9.02805Z" fill="#8E969D"/>
</g>
</svg>
