<svg width="24" height="24" viewBox="0 0 24 24" fill="none" xmlns="http://www.w3.org/2000/svg">
<g id="Youtube">
<path id="Vector" d="M23.5 6.22351C23.3636 5.71525 23.0959 5.2518 22.7238 4.87968C22.3517 4.50757 21.8883 4.2399 21.38 4.10352C19.505 3.60352 12 3.60352 12 3.60352C12 3.60352 4.5 3.60352 2.625 4.10352C2.11674 4.2399 1.65327 4.50757 1.28116 4.87968C0.909047 5.2518 0.64139 5.71525 0.505005 6.22351C0.00500488 8.09351 0.00500488 11.9985 0.00500488 11.9985C0.00500488 11.9985 0.00500488 15.9035 0.505005 17.7785C0.640522 18.2856 0.906692 18.7482 1.27695 19.1202C1.6472 19.4922 2.10857 19.7606 2.61499 19.8985C4.48499 20.3985 11.99 20.3985 11.99 20.3985C11.99 20.3985 19.49 20.3985 21.37 19.8985C21.8783 19.7621 22.3417 19.4944 22.7138 19.1223C23.0859 18.7502 23.3536 18.2868 23.49 17.7785C23.99 15.9035 23.99 11.9985 23.99 11.9985C23.99 11.9985 24 8.09351 23.5 6.22351ZM9.61499 15.5985V8.39851L15.85 11.9985L9.61499 15.5985Z" fill="#8E969D"/>
</g>
</svg>
